<svg width="100" height="100" xmlns="http://www.w3.org/2000/svg">
 <!-- Created with Method Draw - http://github.com/duopixel/Method-Draw/ -->

 <g>
  <title>background</title>
  <rect fill="none" id="canvas_background" height="102" width="102" y="-1" x="-1"/>
  <g display="none" overflow="visible" y="0" x="0" height="100%" width="100%" id="canvasGrid">
   <rect fill="url(#gridpattern)" stroke-width="0" y="0" x="0" height="100%" width="100%"/>
  </g>
 </g>
 <g>
  <title>Layer 1</title>
  <g transform="rotate(-45 50.00000000000001,49.99999618530273) " stroke="null" id="svg_32">
   <polygon stroke="null" points="53.22376251220703,10.815651655197144 53.22376251220703,71.65814852714539 50.1317253112793,71.65814852714539 50.1317253112793,0.9987514019012451 50.38130569458008,0.9987514019012451 " fill="#999999" id="svg_5"/>
   <polygon stroke="null" id="svg_7" points="53.085105895996094,10.399667501449585 53.085105895996094,71.24220156669617 46.91490173339844,71.24220156669617 46.91490173339844,10.67697787284851 47.05354690551758,10.261010885238647 49.993080139160156,1.331519365310669 50.1317253112793,0.9155547618865967 50.242645263671875,0.5827865600585938 50.36745071411133,0.9987514019012451 " fill="#999999"/>
   <rect stroke="null" transform="matrix(0.13865660360882315,0,0,0.13865660360882315,-161.4022064471056,-228.50703435346185) " id="svg_8" height="22.9" width="150.6" fill="#FBAE17" y="2156.809922" x="1449.295783"/>
   <polygon stroke="null" id="svg_9" points="50.1317253112793,0.7768996953964233 50.1317253112793,70.68755984306335 47.05354690551758,70.68755984306335 47.05354690551758,10.122358083724976 " fill="#666666"/>
   <polygon stroke="null" id="svg_10" points="53.30696105957031,90.93144106864929 46.97035598754883,90.93144106864929 47.02581787109375,90.2381579875946 47.06741714477539,89.89149355888367 48.551029205322266,73.7241427898407 51.72627639770508,73.7241427898407 53.237640380859375,90.2381579875946 " fill="#603813"/>
   <polygon stroke="null" id="svg_11" points="49.937618255615234,73.7241427898407 49.937618255615234,89.89149355888367 47.06741714477539,89.89149355888367 48.551029205322266,73.7241427898407 " fill="#C69C6D"/>
   <polygon stroke="null" id="svg_12" points="48.59263610839844,73.7241427898407 48.59263610839844,90.2381579875946 47.02581787109375,90.2381579875946 47.06741714477539,89.89149355888367 48.551029205322266,73.7241427898407 " fill="#C69C6D"/>
   <polygon stroke="null" id="svg_13" points="53.237640380859375,90.2381579875946 51.72627639770508,90.2381579875946 51.72627639770508,73.7241427898407 " fill="#603813"/>
   <path stroke="null" id="svg_14" d="m55.178824,94.231452c0,2.551282 -1.830267,4.658862 -4.256758,5.102563c0,0 0,0 0,0c-0.305045,0.055463 -0.610089,0.083194 -0.915134,0.083194c-0.443701,0 -0.873537,-0.055463 -1.275641,-0.166388c-1.081522,-0.277313 -2.010521,-0.887402 -2.703804,-1.719342c-0.748746,-0.901268 -1.192447,-2.052118 -1.192447,-3.300027c0,-1.095387 0.332776,-2.10758 0.915134,-2.93952c0,0 0,0 0,0c0.360507,-0.513029 0.804208,-0.970596 1.317238,-1.317238c0,0 0,0 0,0c0.83194,-0.582358 1.844133,-0.915134 2.93952,-0.915134c1.220178,0 2.357162,0.429835 3.244565,1.136984c1.164715,0.942865 1.927327,2.398759 1.927327,4.034907z" fill="#42210B"/>
   <path stroke="null" id="svg_15" d="m43.33755,72.143455c0,0.568492 -0.124791,1.109253 -0.346642,1.580685c-0.596223,1.303372 -1.913461,2.190774 -3.438684,2.190774c-0.540761,0 -1.05379,-0.110925 -1.511357,-0.31891c-1.331103,-0.582358 -2.260103,-1.913461 -2.260103,-3.466415c0,-1.400432 0.762611,-2.62061 1.88573,-3.272296l0,0c0.554626,-0.31891 1.206312,-0.513029 1.88573,-0.513029c1.525223,0 2.828595,0.901268 3.438684,2.190774c0.221851,0.499164 0.346642,1.039925 0.346642,1.608417z" fill="#FBAE17"/>
   <path stroke="null" id="svg_16" d="m64.219234,72.143455c0,1.05379 -0.429835,1.996655 -1.109253,2.676072c-0.679417,0.679417 -1.622282,1.095387 -2.662207,1.095387c-1.525223,0 -2.828595,-0.901268 -3.438684,-2.190774c-0.221851,-0.485298 -0.346642,-1.026059 -0.346642,-1.580685c0,-0.568492 0.124791,-1.109253 0.346642,-1.580685c0.596223,-1.303372 1.913461,-2.190774 3.438684,-2.190774l0,0c0.693283,0 1.331103,0.180254 1.88573,0.513029c0,0 0,0 0,0c1.123118,0.63782 1.88573,1.857998 1.88573,3.25843z" fill="#FBAE17"/>
   <polygon stroke="null" id="svg_17" points="50.242645263671875,0.5827865600585938 50.214927673339844,0.9987514019012451 50.1317253112793,1.775223970413208 47.59430694580078,10.288747549057007 47.67749786376953,70.46571230888367 46.91490173339844,70.46571230888367 46.91490173339844,10.67697787284851 47.05354690551758,10.261010885238647 47.05354690551758,10.122358083724976 50.1317253112793,0.7768996953964233 50.1317253112793,0.9155547618865967 " fill="#999999"/>
   <polygon stroke="null" id="svg_18" points="47.87163162231445,12.22993540763855 49.71575164794922,10.371947050094604 49.71575164794922,12.22993540763855 47.87163162231445,13.893812894821167 " fill="#999999"/>
   <polygon stroke="null" id="svg_19" points="47.87163162231445,17.027453184127808 49.71575164794922,15.183330297470093 49.71575164794922,17.027453184127808 47.87163162231445,18.691344022750854 " fill="#999999"/>
   <polygon stroke="null" id="svg_20" points="47.87163162231445,21.28421664237976 49.71575164794922,19.4400794506073 49.71575164794922,21.28421664237976 47.87163162231445,22.948086500167847 " fill="#999999"/>
   <path stroke="null" id="svg_21" d="m49.937604,70.548904l0,3.175236l-6.946696,0c-0.596223,1.303372 -1.913461,2.190774 -3.438684,2.190774c-0.540761,0 -1.05379,-0.110925 -1.511357,-0.31891c-1.331103,-0.582358 -2.260103,-1.913461 -2.260103,-3.466415c0,-1.400432 0.762611,-2.62061 1.88573,-3.272296l0,0c0.554626,-0.31891 1.206312,-0.513029 1.88573,-0.513029c1.525223,0 2.828595,0.901268 3.438684,2.190774l6.946696,0l0,0.013866z" fill="#FBAE17"/>
   <path stroke="null" id="svg_22" d="m64.219234,72.143455c0,1.05379 -0.429835,1.996655 -1.109253,2.676072c-0.679417,0.679417 -1.622282,1.095387 -2.662207,1.095387c-1.525223,0 -2.828595,-0.901268 -3.438684,-2.190774l-7.016024,0l0,-3.175236l7.002158,0c0.596223,-1.303372 1.913461,-2.190774 3.438684,-2.190774l0,0c0.693283,0 1.331103,0.180254 1.88573,0.513029c0,0 0,0 0,0c1.136984,0.651686 1.899595,1.871864 1.899595,3.272296z" fill="#FBAE17"/>
   <path stroke="null" id="svg_23" d="m55.178824,94.231452c0,2.551282 -1.830267,4.658862 -4.256758,5.102563c0,0 0,0 0,0c-0.305045,0.055463 -0.610089,0.083194 -0.915134,0.083194l0,-10.357648c2.856326,-0.013866 5.171891,2.3017 5.171891,5.171891z" fill="#42210B"/>
   <path stroke="null" id="svg_24" d="m48.717426,99.250821c-1.081522,-0.277313 -2.010521,-0.887402 -2.703804,-1.719342c-0.748746,-0.901268 -1.192447,-2.052118 -1.192447,-3.300027c0,-1.095387 0.332776,-2.10758 0.915134,-2.93952c0,0 0,0 0,0c0.360507,-0.513029 0.804208,-0.970596 1.317238,-1.317238c-0.09706,0.83194 -0.845805,7.98662 1.663879,9.276127z" fill="#42210B"/>
   <path stroke="null" id="svg_25" d="m50.922066,99.320149c-0.305045,0.055463 -0.610089,0.083194 -0.915134,0.083194c0.443701,-0.083194 0.73488,-0.09706 0.915134,-0.083194z" fill="#42210B"/>
   <path stroke="null" id="svg_26" d="m46.013622,97.531479c-0.748746,-0.901268 -1.192447,-2.052118 -1.192447,-3.300027c0,-1.095387 0.332776,-2.10758 0.915134,-2.93952c0,0.083194 -0.152522,3.868519 0.277313,6.239547z" fill="#42210B"/>
   <path stroke="null" id="svg_27" d="m47.01195,99.403343c0.110925,-0.013866 0.180254,-0.013866 0.235716,-0.027731c-0.041597,0 -0.09706,0.013866 -0.180254,0.013866c-0.027731,0.013866 -0.041597,0.013866 -0.055463,0.013866z" fill="#42210B"/>
   <path stroke="null" id="svg_28" d="m39.552224,68.35813l0,7.556785c-0.540761,0 -1.05379,-0.110925 -1.511357,-0.31891c-1.331103,-0.582358 -2.260103,-1.913461 -2.260103,-3.466415c0,-1.400432 0.762611,-2.62061 1.88573,-3.272296l0,0c0.554626,-0.31891 1.206312,-0.499164 1.88573,-0.499164z" fill="#FBAE17"/>
   <path stroke="null" id="svg_29" d="m64.219234,72.143455c0,1.05379 -0.429835,1.996655 -1.109253,2.676072c-0.679417,0.679417 -1.622282,1.095387 -2.662207,1.095387l0,-2.190774l0,-3.175236l0,-2.190774l0,0c0.693283,0 1.331103,0.180254 1.88573,0.513029c0,0 0,0 0,0c1.123118,0.651686 1.88573,1.871864 1.88573,3.272296z" fill="#FBAE17"/>
   <path stroke="null" id="svg_30" d="m38.040867,75.60987c-1.331103,-0.582358 -2.260103,-1.913461 -2.260103,-3.466415c0,-1.400432 0.762611,-2.62061 1.88573,-3.272296l0,0c0,-0.013866 -0.762611,5.865174 0.374373,6.738711z" fill="#FBAE17"/>
   <path stroke="null" id="svg_31" d="m63.109981,74.819527c0.332776,-2.315565 -0.748746,-5.865174 -0.776477,-5.962234c1.136984,0.651686 1.88573,1.871864 1.88573,3.272296c0,1.05379 -0.429835,2.010521 -1.109253,2.689938z" fill="#FBAE17"/>
  </g>
  <g transform="rotate(45 49.99999999999998,49.99999618530274) " stroke="null" id="svg_86">
   <polygon stroke="null" points="53.22376251220703,10.815651655197144 53.22376251220703,71.65814852714539 50.1317253112793,71.65814852714539 50.1317253112793,0.9987514019012451 50.38130569458008,0.9987514019012451 " fill="#999999" id="svg_60"/>
   <polygon stroke="null" id="svg_61" points="53.085105895996094,10.399667501449585 53.085105895996094,71.24220156669617 46.91490173339844,71.24220156669617 46.91490173339844,10.67697787284851 47.05354690551758,10.261010885238647 49.993080139160156,1.331519365310669 50.1317253112793,0.9155547618865967 50.242645263671875,0.5827865600585938 50.36745071411133,0.9987514019012451 " fill="#999999"/>
   <rect stroke="null" transform="matrix(0.13865660360882315,0,0,0.13865660360882315,-161.4022064471056,-228.50703435346185) " id="svg_62" height="22.9" width="150.6" fill="#FBAE17" y="2156.809922" x="1449.295783"/>
   <polygon stroke="null" id="svg_63" points="50.1317253112793,0.7768996953964233 50.1317253112793,70.68755984306335 47.05354690551758,70.68755984306335 47.05354690551758,10.122358083724976 " fill="#666666"/>
   <polygon stroke="null" id="svg_64" points="53.30696105957031,90.93144106864929 46.97035598754883,90.93144106864929 47.02581787109375,90.2381579875946 47.06741714477539,89.89149355888367 48.551029205322266,73.7241427898407 51.72627639770508,73.7241427898407 53.237640380859375,90.2381579875946 " fill="#603813"/>
   <polygon stroke="null" id="svg_65" points="49.937618255615234,73.7241427898407 49.937618255615234,89.89149355888367 47.06741714477539,89.89149355888367 48.551029205322266,73.7241427898407 " fill="#C69C6D"/>
   <polygon stroke="null" id="svg_66" points="48.59263610839844,73.7241427898407 48.59263610839844,90.2381579875946 47.02581787109375,90.2381579875946 47.06741714477539,89.89149355888367 48.551029205322266,73.7241427898407 " fill="#C69C6D"/>
   <polygon stroke="null" id="svg_67" points="53.237640380859375,90.2381579875946 51.72627639770508,90.2381579875946 51.72627639770508,73.7241427898407 " fill="#603813"/>
   <path stroke="null" id="svg_68" d="m55.178824,94.231452c0,2.551281 -1.830267,4.658862 -4.256758,5.102563c0,0 0,0 0,0c-0.305045,0.055463 -0.610089,0.083194 -0.915134,0.083194c-0.443701,0 -0.873536,-0.055463 -1.27564,-0.166388c-1.081522,-0.277313 -2.010521,-0.887402 -2.703804,-1.719342c-0.748746,-0.901268 -1.192447,-2.052118 -1.192447,-3.300027c0,-1.095387 0.332776,-2.10758 0.915134,-2.93952c0,0 0,0 0,0c0.360507,-0.51303 0.804208,-0.970596 1.317237,-1.317238c0,0 0,0 0,0c0.83194,-0.582358 1.844133,-0.915133 2.93952,-0.915133c1.220178,0 2.357163,0.429835 3.244565,1.136984c1.164715,0.942865 1.927327,2.398759 1.927327,4.034907z" fill="#42210B"/>
   <path stroke="null" id="svg_69" d="m43.33755,72.143455c0,0.568492 -0.124791,1.109253 -0.346642,1.580685c-0.596223,1.303372 -1.913461,2.190775 -3.438684,2.190775c-0.54076,0 -1.05379,-0.110926 -1.511357,-0.318911c-1.331103,-0.582357 -2.260102,-1.913461 -2.260102,-3.466415c0,-1.400431 0.762611,-2.620609 1.88573,-3.272296l0,0c0.554626,-0.31891 1.206312,-0.513029 1.885729,-0.513029c1.525223,0 2.828595,0.901268 3.438684,2.190774c0.221851,0.499164 0.346642,1.039925 0.346642,1.608417z" fill="#FBAE17"/>
   <path stroke="null" id="svg_70" d="m64.219234,72.143455c0,1.05379 -0.429835,1.996655 -1.109253,2.676072c-0.679417,0.679418 -1.622282,1.095388 -2.662206,1.095388c-1.525223,0 -2.828595,-0.901268 -3.438684,-2.190775c-0.221851,-0.485298 -0.346642,-1.026059 -0.346642,-1.580685c0,-0.568492 0.124791,-1.109253 0.346642,-1.580685c0.596223,-1.303372 1.913461,-2.190775 3.438684,-2.190775l0,0c0.693283,0 1.331103,0.180254 1.885729,0.51303c0,0 0,0 0,0c1.123119,0.63782 1.88573,1.857998 1.88573,3.25843z" fill="#FBAE17"/>
   <polygon stroke="null" id="svg_71" points="50.242645263671875,0.5827865600585938 50.214927673339844,0.9987514019012451 50.1317253112793,1.775223970413208 47.59430694580078,10.288747549057007 47.67749786376953,70.46571230888367 46.91490173339844,70.46571230888367 46.91490173339844,10.67697787284851 47.05354690551758,10.261010885238647 47.05354690551758,10.122358083724976 50.1317253112793,0.7768996953964233 50.1317253112793,0.9155547618865967 " fill="#999999"/>
   <polygon stroke="null" id="svg_72" points="47.87163162231445,12.22993540763855 49.71575164794922,10.371947050094604 49.71575164794922,12.22993540763855 47.87163162231445,13.893812894821167 " fill="#999999"/>
   <polygon stroke="null" id="svg_73" points="47.87163162231445,17.027453184127808 49.71575164794922,15.183330297470093 49.71575164794922,17.027453184127808 47.87163162231445,18.691344022750854 " fill="#999999"/>
   <polygon stroke="null" id="svg_74" points="47.87163162231445,21.28421664237976 49.71575164794922,19.4400794506073 49.71575164794922,21.28421664237976 47.87163162231445,22.948086500167847 " fill="#999999"/>
   <path stroke="null" id="svg_75" d="m49.937604,70.548904l0,3.175236l-6.946696,0c-0.596223,1.303372 -1.913461,2.190775 -3.438684,2.190775c-0.54076,0 -1.05379,-0.110926 -1.511357,-0.318911c-1.331103,-0.582357 -2.260102,-1.913461 -2.260102,-3.466415c0,-1.400431 0.762611,-2.620609 1.88573,-3.272296l0,0c0.554626,-0.31891 1.206312,-0.513029 1.885729,-0.513029c1.525223,0 2.828595,0.901268 3.438684,2.190774l6.946696,0l0,0.013866z" fill="#FBAE17"/>
   <path stroke="null" id="svg_76" d="m64.219234,72.143455c0,1.05379 -0.429835,1.996655 -1.109253,2.676072c-0.679417,0.679418 -1.622282,1.095388 -2.662206,1.095388c-1.525223,0 -2.828595,-0.901268 -3.438684,-2.190775l-7.016024,0l0,-3.175236l7.002158,0c0.596224,-1.303372 1.913461,-2.190774 3.438684,-2.190774l0,0c0.693283,0 1.331103,0.180253 1.88573,0.513029c0,0 0,0 0,0c1.136984,0.651686 1.899595,1.871864 1.899595,3.272296z" fill="#FBAE17"/>
   <path stroke="null" id="svg_77" d="m55.178824,94.231452c0,2.551281 -1.830267,4.658862 -4.256758,5.102563c0,0 0,0 0,0c-0.305045,0.055463 -0.610089,0.083194 -0.915134,0.083194l0,-10.357648c2.856326,-0.013866 5.171892,2.301699 5.171892,5.171891z" fill="#42210B"/>
   <path stroke="null" id="svg_78" d="m48.717426,99.250821c-1.081522,-0.277313 -2.010521,-0.887402 -2.703804,-1.719342c-0.748745,-0.901268 -1.192447,-2.052118 -1.192447,-3.300027c0,-1.095387 0.332776,-2.10758 0.915134,-2.93952c0,0 0,0 0,0c0.360507,-0.51303 0.804208,-0.970596 1.317238,-1.317238c-0.09706,0.83194 -0.845806,7.986621 1.663879,9.276127z" fill="#42210B"/>
   <path stroke="null" id="svg_79" d="m50.922066,99.320149c-0.305045,0.055463 -0.610089,0.083194 -0.915134,0.083194c0.443701,-0.083194 0.73488,-0.097059 0.915134,-0.083194z" fill="#42210B"/>
   <path stroke="null" id="svg_80" d="m46.013622,97.531479c-0.748745,-0.901268 -1.192447,-2.052118 -1.192447,-3.300027c0,-1.095387 0.332776,-2.10758 0.915134,-2.93952c0,0.083194 -0.152522,3.868519 0.277313,6.239547z" fill="#42210B"/>
   <path stroke="null" id="svg_81" d="m47.01195,99.403343c0.110925,-0.013865 0.180253,-0.013865 0.235716,-0.027731c-0.041597,0 -0.09706,0.013866 -0.180254,0.013866c-0.027731,0.013865 -0.041597,0.013865 -0.055462,0.013865z" fill="#42210B"/>
   <path stroke="null" id="svg_82" d="m39.552224,68.35813l0,7.556785c-0.54076,0 -1.05379,-0.110926 -1.511357,-0.318911c-1.331103,-0.582357 -2.260102,-1.913461 -2.260102,-3.466415c0,-1.400431 0.762611,-2.620609 1.88573,-3.272296l0,0c0.554626,-0.31891 1.206312,-0.499163 1.885729,-0.499163z" fill="#FBAE17"/>
   <path stroke="null" id="svg_83" d="m64.219234,72.143455c0,1.05379 -0.429835,1.996655 -1.109253,2.676072c-0.679417,0.679418 -1.622282,1.095388 -2.662206,1.095388l0,-2.190775l0,-3.175236l0,-2.190774l0,0c0.693283,0 1.331103,0.180253 1.885729,0.513029c0,0 0,0 0,0c1.123119,0.651686 1.88573,1.871864 1.88573,3.272296z" fill="#FBAE17"/>
   <path stroke="null" id="svg_84" d="m38.040867,75.60987c-1.331103,-0.582358 -2.260102,-1.913461 -2.260102,-3.466415c0,-1.400432 0.762611,-2.62061 1.88573,-3.272296l0,0c0,-0.013866 -0.762612,5.865174 0.374372,6.738711z" fill="#FBAE17"/>
   <path stroke="null" id="svg_85" d="m63.109981,74.819527c0.332776,-2.315565 -0.748745,-5.865174 -0.776477,-5.962234c1.136985,0.651687 1.88573,1.871865 1.88573,3.272296c0,1.05379 -0.429835,2.010521 -1.109253,2.689938z" fill="#FBAE17"/>
  </g>
 </g>
</svg>